# xmcd
#
# Track frame offsets: 
#        150
#        4236
#        138729
#
# Disc length: 3568 seconds
#
# Revision: 0
# Processed by: cddbd v1.5.2PL0 Copyright (c) Steve Scherf et al.
# Submitted via: ExactAudioCopy v0.99pb4
#
DISCID=230dee03
DTITLE=Dr. Chitti Babu - Indian Classical Maestros · An Instrumental E
DTITLE=xtravaganza · Vol. 4 Veena
DYEAR=1996
DGENRE=Indian
TTITLE0=abc
TTITLE1=def
TTITLE2=ghi
EXTD=
EXTT0=
EXTT1=
EXTT2=
PLAYORDER=
